<svg id="visual" viewBox="0 0 900 600" width="900" height="600" xmlns="http://www.w3.org/2000/svg" xmlns:xlink="http://www.w3.org/1999/xlink" version="1.1"><path d="M0 25L75 24C150 23 300 21 450 27C600 33 750 47 825 54L900 61L900 0L825 0C750 0 600 0 450 0C300 0 150 0 75 0L0 0Z" fill="#004cbb"></path><path d="M0 49L75 75C150 101 300 153 450 197C600 241 750 277 825 295L900 313L900 59L825 52C750 45 600 31 450 25C300 19 150 21 75 22L0 23Z" fill="#005ce5"></path><path d="M0 301L75 293C150 285 300 269 450 284C600 299 750 345 825 368L900 391L900 311L825 293C750 275 600 239 450 195C300 151 150 99 75 73L0 47Z" fill="#2573ff"></path><path d="M0 367L75 353C150 339 300 311 450 318C600 325 750 367 825 388L900 409L900 389L825 366C750 343 600 297 450 282C300 267 150 283 75 291L0 299Z" fill="#5892ff"></path><path d="M0 385L75 383C150 381 300 377 450 396C600 415 750 457 825 478L900 499L900 407L825 386C750 365 600 323 450 316C300 309 150 337 75 351L0 365Z" fill="#6198ff"></path><path d="M0 481L75 470C150 459 300 437 450 445C600 453 750 491 825 510L900 529L900 497L825 476C750 455 600 413 450 394C300 375 150 379 75 381L0 383Z" fill="#5892ff"></path><path d="M0 523L75 506C150 489 300 455 450 458C600 461 750 501 825 521L900 541L900 527L825 508C750 489 600 451 450 443C300 435 150 457 75 468L0 479Z" fill="#2573ff"></path><path d="M0 595L75 581C150 567 300 539 450 539C600 539 750 567 825 581L900 595L900 539L825 519C750 499 600 459 450 456C300 453 150 487 75 504L0 521Z" fill="#005ce5"></path><path d="M0 601L75 601C150 601 300 601 450 601C600 601 750 601 825 601L900 601L900 593L825 579C750 565 600 537 450 537C300 537 150 565 75 579L0 593Z" fill="#004cbb"></path></svg>